<svg width="100" height="100" viewBox="60 60 100 80" fill="none" xmlns="http://www.w3.org/2000/svg">

<path d="M149.778 82.2222H66.6667C65.0444 82.2222 63.6667 80.8444 63.6667 79.2222V65.7778C63.6667 64.1556 65.0444 62.7778 66.6667 62.7778H99.5556L102.778 69.2222H149.778C151.4 69.2222 152.778 70.6 152.778 72.2222V79.2222C152.778 80.8444 151.4 82.2222 149.778 82.2222Z" fill="#5F758B"/>

<path d="M149.778 95.5556H66.6667C65.0444 95.5556 63.6667 94.1778 63.6667 92.5556V79.1111C63.6667 77.4889 65.0444 76.1111 66.6667 76.1111H99.5556L102.778 82.5556H149.778C151.4 82.5556 152.778 83.9333 152.778 85.5556V92.5556C152.778 94.1778 151.4 95.5556 149.778 95.5556Z" fill="#FF9C8C"/>

<path d="M149.778 108.889H66.6667C65.0444 108.889 63.6667 107.511 63.6667 105.889V92.4444C63.6667 90.8222 65.0444 89.4444 66.6667 89.4444H99.5556L102.778 95.8889H149.778C151.4 95.8889 152.778 97.2667 152.778 98.8889V105.889C152.778 107.511 151.4 108.889 149.778 108.889Z" fill="#35495E"/>

<path d="M149.778 122.222H66.6667C65.0444 122.222 63.6667 120.844 63.6667 119.222V105.778C63.6667 104.156 65.0444 102.778 66.6667 102.778H99.5556L102.778 109.222H149.778C151.4 109.222 152.778 110.6 152.778 112.222V119.222C152.778 120.844 151.4 122.222 149.778 122.222Z" fill="#5F758B"/>

<path d="M149.778 135.556H66.6667C65.0444 135.556 63.6667 134.178 63.6667 132.556V119.111C63.6667 117.489 65.0444 116.111 66.6667 116.111H99.5556L102.778 122.556H149.778C151.4 122.556 152.778 123.933 152.778 125.556V132.556C152.778 134.178 151.4 135.556 149.778 135.556Z" fill="#35495E"/>


<path d="M72.2222 125C72.2222 119.477 76.6995 115 82.2222 115C87.7449 115 92.2222 119.477 92.2222 125C92.2222 130.523 87.7449 135 82.2222 135C76.6995 135 72.2222 130.523 72.2222 125Z" stroke="#ff7e67" stroke-width="2" stroke-linecap="round" stroke-linejoin="round"/>
<path d="M82.2222 118.889V125L86.1111 127.778" stroke="#ff7e67" stroke-width="2" stroke-linecap="round" stroke-linejoin="round"/>

<rect x="68.8887" y="117.778" width="22.2222" height="6.66667" rx="1.11111" fill="#ff7e67"/>
<rect x="68.8887" y="125" width="22.2222" height="6.66667" rx="1.11111" fill="#ff7e67"/>
<text x="70.5" y="123" font-family="Arial" font-size="5" fill="#FFFFFF">YEAR</text>
<text x="70.5" y="130.2" font-family="Arial" font-size="5" fill="#FFFFFF">MONTH</text>

</svg>