<svg width="100" height="80" viewBox="0 0 100 80" fill="none" xmlns="http://www.w3.org/2000/svg">

<path d="M89.778 22.2222H6.6667C5.0444 22.2222 3.6667 20.8444 3.6667 19.2222V5.7778C3.6667 4.1556 5.0444 2.7778 6.6667 2.7778H39.5556L42.778 9.2222H89.778C91.4 9.2222 92.778 10.6 92.778 12.2222V19.2222C92.778 20.8444 91.4 22.2222 89.778 22.2222Z" fill="#5F758B"/>

<path d="M89.778 35.5556H6.6667C5.0444 35.5556 3.6667 34.1778 3.6667 32.5556V19.1111C3.6667 17.4889 5.0444 16.1111 6.6667 16.1111H39.5556L42.778 22.5556H89.778C91.4 22.5556 92.778 23.9333 92.778 25.5556V32.5556C92.778 34.1778 91.4 35.5556 89.778 35.5556Z" fill="#FF9C8C"/>

<path d="M89.778 48.889H6.6667C5.0444 48.889 3.6667 47.511 3.6667 45.889V32.4444C3.6667 30.8222 5.0444 29.4444 6.6667 29.4444H39.5556L42.778 35.8889H89.778C91.4 35.8889 92.778 37.2667 92.778 38.8889V45.889C92.778 47.511 91.4 48.889 89.778 48.889Z" fill="#35495E"/>

<path d="M89.778 62.222H6.6667C5.0444 62.222 3.6667 60.844 3.6667 59.222V45.778C3.6667 44.156 5.0444 42.778 6.6667 42.778H39.5556L42.778 49.222H89.778C91.4 49.222 92.778 50.6 92.778 52.222V59.222C92.778 60.844 91.4 62.222 89.778 62.222Z" fill="#5F758B"/>

<path d="M89.778 75.556H6.6667C5.0444 75.556 3.6667 74.178 3.6667 72.556V59.111C3.6667 57.489 5.0444 56.111 6.6667 56.111H39.5556L42.778 62.556H89.778C91.4 62.556 92.778 63.933 92.778 65.556V72.556C92.778 74.178 91.4 75.556 89.778 75.556Z" fill="#35495E"/>

<circle cx="22.2222" cy="65" r="10" stroke="#ff7e67" stroke-width="2"/>
<path d="M22.2222 58.889V65L26.1111 67.778" stroke="#ff7e67" stroke-width="2" stroke-linecap="round" stroke-linejoin="round"/>

<rect x="8.8887" y="57.778" width="22.2222" height="6.66667" rx="1.11111" fill="#ff7e67"/>
<rect x="8.8887" y="65" width="22.2222" height="6.66667" rx="1.11111" fill="#ff7e67"/>
<text x="10.5" y="63" font-family="Arial" font-size="5" fill="#FFFFFF">YEAR</text>
<text x="10.5" y="70.2" font-family="Arial" font-size="5" fill="#FFFFFF">MONTH</text>

</svg>